<svg xmlns="http://www.w3.org/2000/svg" viewBox="0 0 48 48" role="img" aria-labelledby="title">
  <title id="title">Google</title>
  <path fill="#4285F4" d="M45.12 24.5c0-1.56-.14-3.06-.4-4.5H24v8.52h11.84c-.52 2.74-2.08 5.06-4.42 6.62v5.5h7.16c4.18-3.86 6.54-9.54 6.54-16.14z"/>
  <path fill="#34A853" d="M24 46c5.96 0 10.96-1.96 14.6-5.36l-7.16-5.5c-1.98 1.32-4.5 2.1-7.44 2.1-5.74 0-10.6-3.88-12.34-9.08H4.28v5.68C7.9 41.04 15.34 46 24 46z"/>
  <path fill="#FBBC05" d="M11.66 28.16A13.2 13.2 0 0 1 10.96 24c0-1.44.24-2.84.7-4.16v-5.68H4.28A21.86 21.86 0 0 0 2 24c0 3.54.82 6.9 2.28 9.84l7.38-5.68z"/>
  <path fill="#EA4335" d="M24 10.76c3.24 0 6.14 1.12 8.44 3.3l6.32-6.32C34.94 4.18 29.94 2 24 2 15.34 2 7.9 6.96 4.28 14.16l7.38 5.68c1.74-5.2 6.6-9.08 12.34-9.08z"/>
</svg>
